HIERARCHY
ROOT hip
{
	OFFSET 0.000000 0.000000 0.000000 
	CHANNELS 6 Xposition Yposition Zposition Xrotation Zrotation Yrotation
	JOINT abdomen
	{
		OFFSET 0.000000 3.402643 0.000000 
		CHANNELS 3 Xrotation Zrotation Yrotation
		JOINT chest
		{
			OFFSET 0.000000 8.438565 -0.680529 
			CHANNELS 3 Xrotation Zrotation Yrotation
			JOINT neck
			{
				OFFSET 0.000000 10.207942 -0.272212 
				CHANNELS 3 Xrotation Zrotation Yrotation
				JOINT head
				{
					OFFSET 0.000000 3.130431 0.000000 
					CHANNELS 3 Xrotation Zrotation Yrotation
					End Site
					{
						OFFSET 0.000000 3.130435 0.000000 
					}
				}
			}
			JOINT lCollar
			{
				OFFSET 3.470700 6.669187 -0.816635 
				CHANNELS 3 Yrotation Zrotation Xrotation
				JOINT lShldr
				{
					OFFSET 3.198488 0.000000 0.000000 
					CHANNELS 3 Zrotation Yrotation Xrotation
					JOINT lForeArm
					{
						OFFSET 10.139888 0.000000 0.000000 
						CHANNELS 3 Yrotation Zrotation Xrotation
						JOINT lHand
						{
							OFFSET 8.370511 0.000000 0.000000 
							CHANNELS 3 Zrotation Yrotation Xrotation
							End Site
							{
								OFFSET 4.083176 0.000000 0.000000 
							}
						}
					}
				}
			}
			JOINT rCollar
			{
				OFFSET -3.470700 6.669187 -0.816635 
				CHANNELS 3 Yrotation Zrotation Xrotation
				JOINT rShldr
				{
					OFFSET -3.198488 0.000000 0.000000 
					CHANNELS 3 Zrotation Yrotation Xrotation
					JOINT rForeArm
					{
						OFFSET -10.139888 0.000000 0.000000 
						CHANNELS 3 Yrotation Zrotation Xrotation
						JOINT rHand
						{
							OFFSET -8.370511 0.000000 0.000000 
							CHANNELS 3 Zrotation Yrotation Xrotation
							End Site
							{
								OFFSET -4.083176 0.000000 0.000000 
							}
						}
					}
				}
			}
		}
	}
	JOINT lThigh
	{
		OFFSET 5.308129 -1.633274 1.361059 
		CHANNELS 3 Xrotation Zrotation Yrotation
		JOINT lShin
		{
			OFFSET -2.041588 -20.007561 0.000000 
			CHANNELS 3 Xrotation Zrotation Yrotation
			JOINT lFoot
			{
				OFFSET 0.000000 -19.190928 -1.224953 
				CHANNELS 3 Xrotation Yrotation Zrotation
				End Site
				{
					OFFSET 0.000000 -2.449906 4.627600 
				}
			}
		}
	}
	JOINT rThigh
	{
		OFFSET -5.308129 -1.633274 1.361059 
		CHANNELS 3 Xrotation Zrotation Yrotation
		JOINT rShin
		{
			OFFSET 2.041588 -20.007561 0.000000 
			CHANNELS 3 Xrotation Zrotation Yrotation
			JOINT rFoot
			{
				OFFSET 0.000000 -19.190928 -1.224953 
				CHANNELS 3 Xrotation Yrotation Zrotation
				End Site
				{
					OFFSET 0.000000 -2.449906 4.627600 
				}
			}
		}
	}
}
MOTION
Frames: 13
Frame Time: 0.033333
5.465639 21.254175 1.234093 16.891741 -1.263250 11.487143 15.468924 -1.025391 -0.009939 51.650425 -0.039062 -0.048835 -8.544920 -0.009766 -0.009767 10.185279 0.068359 -0.224609 1.992188 -2.001953 0.000341 -67.087769 -99.311508 -15.162890 -10.006201 -0.894136 8.308762 -9.535931 13.921628 15.066412 -2.001953 1.992188 0.000000 -11.204536 75.997231 -78.466751 23.535805 0.746645 8.367240 11.451288 -16.040260 -5.357596 -88.866646 30.546774 1.679546 122.966545 4.625030 -3.373358 -33.963291 6.734375 -0.961092 2.141879 -14.614298 -50.347183 92.356270 -2.707155 4.082581 58.981430 -5.898515 -36.030014 
5.465639 21.256310 1.234753 16.889797 -1.272820 11.487142 15.478679 -0.957031 -0.009927 51.601574 -0.029297 -0.019536 -8.544920 -0.009766 -0.009767 9.999418 0.136718 -0.244140 1.992188 -2.001953 0.000341 -67.675468 -99.540504 -14.334351 -9.986872 -0.891314 8.309262 -9.489441 14.168381 15.118773 -2.001953 1.992188 0.000000 -13.335693 75.982994 -79.756775 23.476601 0.743898 8.361999 11.728749 -16.482794 -5.390260 -88.952103 30.555363 1.564482 123.005707 4.633186 -3.367881 -33.963600 6.735182 -0.972205 2.167282 -14.530794 -50.370064 92.337097 -2.707180 4.072465 58.993923 -5.894182 -36.038063 
5.465645 21.258438 1.235399 16.887852 -1.282390 11.487142 15.478668 -0.898438 -0.009918 51.562500 -0.009766 0.000000 -8.544920 -0.009766 -0.009767 9.813464 0.214841 -0.263670 1.992188 -2.001953 0.000341 -68.235779 -99.770454 -13.525463 -9.966133 -0.898154 8.309764 -9.442273 14.414996 15.171099 -2.001953 1.992188 0.000000 -15.446526 75.952110 -81.036522 23.426929 0.746466 8.365211 12.004103 -16.937000 -5.417388 -89.038589 30.554691 1.448993 123.035408 4.633220 -3.358100 -33.953262 6.738244 -0.970586 2.166246 -14.452575 -50.372028 92.326981 -2.706966 4.081958 59.011742 -5.894476 -36.027966 
5.469364 21.257816 1.229849 16.885906 -1.291960 11.487141 15.478646 -0.761719 -0.009895 51.582020 -0.029297 0.029297 -8.544920 -0.009766 -0.009767 9.617788 0.283200 -0.273434 1.992188 -2.001953 0.000341 -68.795380 -99.950394 -12.416570 -9.937142 -0.893920 8.310511 -9.597408 14.632380 15.259150 -2.001953 1.992188 0.000000 -16.293255 75.954361 -80.853775 23.515085 0.753468 8.368607 12.032153 -17.178797 -5.453933 -89.159149 30.556179 1.313902 123.084312 4.633227 -3.357483 -33.943027 6.737579 -0.959984 2.167410 -14.375190 -50.354454 92.336014 -2.707472 4.100898 59.034225 -5.892371 -36.032124 
5.473085 21.257196 1.224295 16.874193 -1.301530 11.487362 15.478624 -0.634766 -0.009873 51.611282 -0.039062 0.068359 -8.544920 -0.009766 -0.009767 9.431796 0.351558 -0.292963 1.992188 -2.001953 0.000341 -69.337303 -100.131554 -11.317682 -9.917964 -0.889415 8.301389 -9.751830 14.850376 15.345842 -2.001953 1.992188 0.000000 -17.135382 75.958199 -80.671333 23.604658 0.750826 8.371844 12.047132 -17.423550 -5.475707 -89.268967 30.552874 1.187046 123.132980 4.642946 -3.358500 -33.931904 6.743618 -0.943874 2.148360 -14.287763 -50.343922 92.326256 -2.697692 4.110438 59.043278 -5.900323 -36.037300 
5.478662 21.259464 1.216959 16.872250 -1.311100 11.487361 15.478597 -0.468750 -0.009845 51.689354 -0.058594 0.097656 -8.544920 -0.009766 -0.009767 9.236062 0.419916 -0.302726 1.992188 -2.001953 0.000341 -69.959312 -100.327705 -9.955208 -10.362413 -0.888685 8.309036 -10.037525 15.077004 15.414478 -2.001953 1.992188 0.000000 -17.461752 75.968811 -79.821732 23.783932 0.741661 8.369543 11.942078 -17.580336 -5.509246 -89.402847 30.555996 1.020644 123.182243 4.642981 -3.348456 -33.932129 6.738895 -0.935744 2.147907 -14.170393 -50.341988 92.296967 -2.697694 4.109607 59.072983 -5.901548 -36.032688 
5.484238 21.261707 1.209616 16.870304 -1.320670 11.487361 15.478566 -0.292969 -0.009815 51.767406 -0.078125 0.126953 -8.544920 -0.009766 -0.009767 9.049933 0.498039 -0.322253 1.992188 -2.001953 0.000341 -70.492096 -100.518547 -8.680413 -10.806858 -0.888161 8.316288 -10.322690 15.304716 15.478480 -2.001953 1.992188 0.000000 -17.810911 75.976326 -78.982391 23.952124 0.740757 8.367770 11.837148 -17.737324 -5.545116 -89.537842 30.555378 0.849613 123.231041 4.633250 -3.355627 -33.930748 6.749195 -0.927625 2.138447 -14.052797 -50.339176 92.267326 -2.697666 4.118342 59.119221 -5.918125 -36.021347 
5.489815 21.253309 1.198985 16.868359 -1.330240 11.487360 15.478530 -0.087891 -0.009781 51.884438 -0.107421 0.175781 -8.544920 -0.009766 -0.009767 8.854043 0.566396 -0.341780 1.992188 -2.001953 0.000341 -71.106644 -100.698082 -7.163592 -11.350904 -0.880723 8.310426 -10.704823 15.530498 15.563709 -2.001953 1.992188 0.000000 -17.652533 76.002213 -77.526016 24.189159 0.744144 8.370346 11.601992 -17.838604 -5.582414 -89.682945 30.564486 0.675630 123.289833 4.643000 -3.347055 -33.910805 6.746969 -0.918919 2.117739 -13.915649 -50.343388 92.228638 -2.697121 4.108144 59.154259 -5.941126 -36.028854 
5.495390 21.244925 1.188359 16.856647 -1.339810 11.487358 15.478497 0.117188 -0.009766 52.001442 -0.136718 0.214843 -8.544920 -0.009766 -0.009767 8.667920 0.644519 -0.351540 1.992188 -2.001953 0.000341 -71.654694 -100.880898 -5.714447 -11.894792 -0.875328 8.313348 -11.086437 15.765368 15.634696 -2.001953 1.992188 0.000000 -17.489130 76.020332 -76.068451 24.437260 0.739370 8.371941 11.376212 -17.929991 -5.617182 -89.840179 30.565004 0.497587 123.328560 4.634863 -3.360984 -33.892666 6.728373 -0.911140 2.088042 -13.787963 -50.347755 92.218880 -2.697110 4.107880 59.159607 -5.950398 -36.008579 
5.500968 21.245056 1.180364 16.854702 -1.349380 11.487586 15.478460 0.332031 -0.009765 52.137905 -0.166014 0.263671 -8.544920 -0.009766 -0.009767 8.471946 0.712876 -0.371065 1.992188 -2.001953 0.000341 -72.135345 -101.057426 -4.186660 -12.498056 -0.868945 8.313722 -11.538357 15.990086 15.722435 -2.001953 1.992188 0.000000 -16.987408 76.027885 -74.183174 24.734901 0.736203 8.379037 11.056979 -17.955181 -5.660991 -90.007988 30.555933 0.334453 123.387657 4.643023 -3.345761 -33.879894 6.746220 -0.886176 2.077086 -13.660393 -50.353867 92.209114 -2.697098 4.107617 59.216267 -5.939783 -36.018101 
5.506552 21.245192 1.172358 16.852757 -1.358950 11.487586 15.478424 0.537109 -0.009765 52.284035 -0.205075 0.312498 -8.544920 -0.009766 -0.009767 8.285689 0.781232 -0.390589 1.992188 -2.001953 0.000341 -72.671867 -101.244812 -2.610994 -13.102718 -0.853096 8.312954 -11.986957 16.219296 15.816700 -2.001953 1.992188 0.000000 -16.462282 76.032150 -72.275734 25.040863 0.740158 8.376145 10.734744 -17.983259 -5.692540 -90.167313 30.533501 0.160973 123.436562 4.643025 -3.345128 -33.839222 6.744586 -0.854383 2.047319 -13.522952 -50.357391 92.199348 -2.697079 4.107358 59.251801 -5.958974 -36.006489 
5.515845 21.246836 1.159473 16.850813 -1.368520 11.487585 15.478387 0.751953 -0.009765 52.439892 -0.234370 0.371091 -8.544920 -0.009766 -0.009767 8.349586 0.956981 -0.586019 1.992188 -2.001953 0.000341 -73.203583 -101.400734 -0.949789 -13.744458 -0.855059 8.319291 -12.521312 16.445520 15.891837 -2.001953 1.992188 0.000000 -15.559946 76.027679 -69.928841 25.388138 0.734730 8.379181 10.347493 -17.954514 -5.730154 -90.360115 30.536652 -0.055432 123.495598 4.643058 -3.334956 -33.838352 6.744626 -0.830844 2.027253 -13.375707 -50.360825 92.179825 -2.697062 4.106822 59.285912 -5.956086 -36.018635 
5.525138 21.248480 1.146588 16.848867 -1.378090 11.487584 15.478351 0.966797 -0.009764 52.595676 -0.263664 0.429683 -8.544920 -0.009766 -0.009767 8.402192 1.142469 -0.791053 1.992188 -2.001953 0.000341 -73.714203 -101.549194 0.691440 -14.397251 -0.849154 8.324080 -13.042616 16.674212 15.978792 -2.001953 1.992188 0.000000 -14.641999 76.014931 -67.557785 25.745033 0.730898 8.380954 9.951096 -17.937765 -5.766916 -90.555588 30.527113 -0.285891 123.554230 4.634967 -3.339261 -33.817043 6.746048 -0.796708 2.007194 -13.229362 -50.354599 92.160660 -2.687313 4.106489 59.311062 -5.977786 -36.017784 
